<svg id="Layer_1" class="svg-logo" data-name="Layer 1" xmlns="http://www.w3.org/2000/svg" viewBox="0 0 583.48 144.72">
	<defs>
		<style>
			.cls-1 {
				font-size:97.3px;
			}
			.cls-1,.cls-2,.cls-3,.cls-4,.cls-7,.cls-8 {
				fill:#356eb6;
			}
			.cls-1,.cls-2,.cls-3,.cls-4 {
				font-family:DINCondensed-Bold, DIN Condensed;font-weight:700;
			}
			.cls-2 {
				font-size:132.07px;
			}
			.cls-3 {
				font-size:131.1px;
			}
			.cls-4 {
				font-size:131.1px;
			}
			.cls-5 {
				fill:#fff;
			}
			.cls-5,.cls-6 {
				stroke:#356eb6;
			}
			.cls-5,.cls-6,.cls-7 {
				stroke-miterlimit:10;stroke-width:0.5px;
			}
			.cls-6 {
				fill:none;
			}
			.cls-7 {
				stroke:#fff;
			}
		</style>
	</defs>
	<title>Artboard 1</title>
	<text class="cls-1" transform="translate(54.49 101.92) scale(1.14 1)">PREMISE</text>
	<text class="cls-1" transform="translate(416.38 101.92) scale(1.14 1)">WP</text>
	<text class="cls-2" transform="translate(374.84 113.33) scale(0.84 1)">/</text>
	<text class="cls-3" transform="translate(16.13 112.16) scale(0.85 1)">[</text>
	<text class="cls-4" transform="translate(536.23 112.16) scale(0.85 1)">]</text>

	<circle class="cls-5 stroke-2" cx="573.28" cy="72.3" r="2.5"/>
	<line class="cls-6 stroke-2" x1="562.67" y1="72.3" x2="570.78" y2="72.3"/>

	<rect class="cls-6 stroke-1" x="13.35" y="9.6" width="549.11" height="125"/>

	<rect class="cls-5 stroke-2" x="10.85" y="69.6" width="5" height="5"/>
	<rect class="cls-5 stroke-2" x="559.96" y="69.6" width="5" height="5"/>
	<rect class="cls-5 stroke-2" x="285.41" y="132.1" width="5" height="5"/>
	<rect class="cls-5 stroke-2" x="285.41" y="7.1" width="5" height="5"/>

	<rect class="cls-7 fade-in" x="536.59" y="106.66" width="2" height="2"/>
	<line class="cls-6 stroke-2" x1="536.85" y1="108.66" x2="562.46" y2="108.66"/>
	<rect class="cls-8 fade-in" x="13.35" y="106.79" width="2" height="2"/>
	<line class="cls-6 stroke-2" x1="13.6" y1="108.79" x2="39.22" y2="108.79"/>
	<rect class="cls-7 fade-in" x="418.19" y="99.92" width="2" height="2"/>
	<line class="cls-6 stroke-2" x1="418.44" y1="101.92" x2="523.61" y2="101.92"/>
	<rect class="cls-7 fade-in" x="373.04" y="112.33" width="1.96" height="2"/>
	<line class="cls-6 stroke-2" x1="373.29" y1="114.33" x2="398.39" y2="114.33"/>
	<rect class="cls-7 fade-in" x="57.29" y="99.92" width="2" height="2"/>
	<line class="cls-6 stroke-2" x1="57.56" y1="101.92" x2="360.13" y2="101.92"/>
</svg>